<svg xmlns="http://www.w3.org/2000/svg" viewBox="0 0 50 50">
    <title>TECMOTORS_Icons</title>
    <!-- <g id="_o_mockup" data-name="[o] mockup">
        <rect x="-69.9051" y="-629.95452" width="10" height="10" style="fill:#fff;stroke:#FFF;stroke-linecap:round;stroke-linejoin:round"/>
    </g> -->
    <g id="Layer_4" data-name="Layer 4" style="fill:red;">
        <polygon points="32.388 21.539 29.28 23.947 30.299 24.408 28.904 26.437 28.918 26.448 31.884 24.035 30.935 23.642 32.404 21.55 32.388 21.539"/>
        <path d="M22.6261,28.011H16.30579a.5.5,0,0,0,0,1H22.6261a.5.5,0,0,0,0-1Z"/>
        <path d="M22.6261,25.92511H16.30579a.5.5,0,0,0,0,1H22.6261a.5.5,0,0,0,0-1Z"/>
        <path d="M22.6261,23.83917H16.30579a.5.5,0,0,0,0,1H22.6261a.5.5,0,0,0,0-1Z"/>
        <path d="M22.6261,21.75323H16.30579a.5.5,0,0,0,0,1H22.6261a.5.5,0,0,0,0-1Z"/>
        <path d="M22.6261,19.6673H16.30579a.5.5,0,0,0,0,1H22.6261a.5.5,0,0,0,0-1Z"/>
        <path d="M39.55335,23.00421H36.72717V21.179a1.6745,1.6745,0,0,0-1.67285-1.67285h-.37451v-.84961a3.14415,3.14415,0,0,0-3.14014-3.14063H12.02356a3.14426,3.14426,0,0,0-3.14062,3.14063V29.44464a3.14426,3.14426,0,0,0,3.14063,3.14062h.9386l.78748,2.28125h2.99414l.78748-2.28125h8.45386l.78748,2.28125h2.99414l.78748-2.28125h.98547a3.14216,3.14216,0,0,0,3.13666-3.10645h.378A1.6745,1.6745,0,0,0,36.72717,27.806v-1.6748h2.82617a1.56348,1.56348,0,0,0,0-3.127ZM9.88294,29.44464V18.65655a2.143,2.143,0,0,1,2.14063-2.14062h.79492V31.58526h-.79492A2.143,2.143,0,0,1,9.88294,29.44464Zm6.14795,4.42187H14.46253l-.44244-1.28125h2.45325Zm3.91553-2.28125H13.81848V16.51593H26.62757V31.58526H19.94641Zm7.53906,2.28125L27.043,32.58526h2.45325l-.44244,1.28125Zm6.19434-4.42187a2.14254,2.14254,0,0,1-2.14014,2.14063h-1.3418l.0238.5083-.0238-.0083v-.5H27.62757V16.51593h3.91211a2.14254,2.14254,0,0,1,2.14014,2.14063ZM35.72717,27.806a.67351.67351,0,0,1-.67285.67285h-.37451V20.50616h.37451a.67351.67351,0,0,1,.67285.67285v6.627Zm3.82617-2.6748H36.72717v-1.127h2.82617a.56348.56348,0,1,1,0,1.127Z"/>
    </g>
</svg>